<svg width="19" height="18" viewBox="0 0 19 18" fill="none" xmlns="http://www.w3.org/2000/svg">
<path d="M9.09827 0.0625C7.3306 0.0625 5.60263 0.586675 4.13286 1.56874C2.6631 2.55081 1.51756 3.94665 0.841097 5.57977C0.164639 7.21288 -0.0123532 9.00991 0.332502 10.7436C0.677358 12.4773 1.52857 14.0698 2.7785 15.3198C4.02844 16.5697 5.62095 17.4209 7.35465 17.7658C9.08836 18.1106 10.8854 17.9336 12.5185 17.2572C14.1516 16.5807 15.5475 15.4352 16.5295 13.9654C17.5116 12.4956 18.0358 10.7677 18.0358 9C18.0333 6.63039 17.0908 4.35856 15.4153 2.683C13.7397 1.00743 11.4679 0.0650023 9.09827 0.0625ZM6.8321 12.4375H11.3644C10.903 14.0136 10.1295 15.4341 9.09827 16.553C8.06702 15.4341 7.29358 14.0136 6.8321 12.4375ZM6.52014 11.0625C6.29213 9.69695 6.29213 8.30305 6.52014 6.9375H11.6764C11.9044 8.30305 11.9044 9.69695 11.6764 11.0625H6.52014ZM1.53577 9C1.53517 8.30256 1.63148 7.60843 1.82194 6.9375H5.1271C4.922 8.30485 4.922 9.69515 5.1271 11.0625H1.82194C1.63148 10.3916 1.53517 9.69744 1.53577 9ZM11.3644 5.5625H6.8321C7.29358 3.98641 8.06702 2.56586 9.09827 1.44695C10.1295 2.56586 10.903 3.98641 11.3644 5.5625ZM13.0694 6.9375H16.3746C16.7562 8.28603 16.7562 9.71397 16.3746 11.0625H13.0694C13.2745 9.69515 13.2745 8.30485 13.0694 6.9375ZM15.8332 5.5625H12.7884C12.4376 4.18192 11.8484 2.87321 11.0473 1.69531C12.0707 1.97033 13.0252 2.45648 13.8495 3.1225C14.6737 3.78852 15.3494 4.61967 15.8332 5.5625ZM7.14921 1.69531C6.34818 2.87321 5.75897 4.18192 5.40811 5.5625H2.36335C2.84711 4.61967 3.52284 3.78852 4.34708 3.1225C5.17132 2.45648 6.12582 1.97033 7.14921 1.69531ZM2.36335 12.4375H5.40811C5.75897 13.8181 6.34818 15.1268 7.14921 16.3047C6.12582 16.0297 5.17132 15.5435 4.34708 14.8775C3.52284 14.2115 2.84711 13.3803 2.36335 12.4375ZM11.0473 16.3047C11.8484 15.1268 12.4376 13.8181 12.7884 12.4375H15.8332C15.3494 13.3803 14.6737 14.2115 13.8495 14.8775C13.0252 15.5435 12.0707 16.0297 11.0473 16.3047Z" fill="#3C3C3C"/>
</svg>
