<svg width="18" height="18" viewBox="0 0 18 18" fill="none" xmlns="http://www.w3.org/2000/svg">
<path d="M17.7362 16.7637L13.4333 12.4616C14.6805 10.9644 15.3024 9.04389 15.1697 7.09977C15.0369 5.15564 14.1598 3.33753 12.7207 2.02364C11.2816 0.709759 9.3914 0.00126102 7.44325 0.0455359C5.4951 0.0898108 3.63902 0.88345 2.26111 2.26135C0.883205 3.63926 0.0895667 5.49534 0.0452918 7.44349C0.00101688 9.39164 0.709514 11.2819 2.0234 12.7209C3.33728 14.16 5.1554 15.0372 7.09952 15.1699C9.04365 15.3026 10.9641 14.6807 12.4614 13.4336L16.7634 17.7365C16.8273 17.8004 16.9031 17.851 16.9866 17.8856C17.07 17.9202 17.1595 17.938 17.2498 17.938C17.3402 17.938 17.4296 17.9202 17.5131 17.8856C17.5965 17.851 17.6724 17.8004 17.7362 17.7365C17.8001 17.6726 17.8508 17.5968 17.8853 17.5133C17.9199 17.4299 17.9377 17.3404 17.9377 17.2501C17.9377 17.1597 17.9199 17.0703 17.8853 16.9868C17.8508 16.9034 17.8001 16.8275 17.7362 16.7637ZM1.43733 7.62507C1.43733 6.4013 1.80022 5.20501 2.48011 4.18748C3.16 3.16995 4.12636 2.37689 5.25698 1.90857C6.38759 1.44025 7.63169 1.31772 8.83195 1.55647C10.0322 1.79521 11.1347 2.38451 12.0001 3.24985C12.8654 4.11519 13.4547 5.21769 13.6934 6.41795C13.9322 7.61821 13.8097 8.86231 13.3413 9.99293C12.873 11.1235 12.0799 12.0899 11.0624 12.7698C10.0449 13.4497 8.8486 13.8126 7.62483 13.8126C5.98436 13.8108 4.4116 13.1583 3.25162 11.9983C2.09163 10.8383 1.43915 9.26554 1.43733 7.62507Z" fill="#3C3C3C"/>
</svg>
